<svg xmlns="http://www.w3.org/2000/svg" xmlns:xlink="http://www.w3.org/1999/xlink" width="25px" height="25px">
  <path fill-rule="evenodd"  fill="#3a10e5"
    d="M24.677,23.222 L18.670,17.215 C20.159,15.399 21.056,13.071 21.056,10.537 C21.056,4.721 16.339,0.002 10.525,0.002 C4.706,0.002 -0.007,4.721 -0.007,10.537 C-0.007,16.350 4.706,21.066 10.525,21.066 C13.060,21.066 15.380,20.175 17.196,18.689 L23.204,24.688 C23.612,25.098 24.269,25.098 24.677,24.688 C25.085,24.288 25.085,23.624 24.677,23.222 ZM10.525,18.972 C5.869,18.972 2.085,15.187 2.085,10.537 C2.085,5.886 5.869,2.095 10.525,2.095 C15.176,2.095 18.966,5.886 18.966,10.537 C18.966,15.187 15.176,18.972 10.525,18.972 Z"/>
  </svg>